<svg viewBox="0 0 300 300" xmlns="http://www.w3.org/2000/svg" fill="none" stroke-width="0.1" stroke-linecap="round"><rect width="100%" height="100%" fill="#ffffffff" />
<line x1="40" y1="200" x2="140" y2="100" stroke="red" />
<circle cx="40" cy="200" r="0.5" stroke="blue" />
<circle cx="140" cy="100" r="0.5" stroke="blue" />
<path d="M 140 100 A 88.38834764831844 88.38834764831844 0 0 0 240 200" stroke="red" />
<circle cx="140" cy="100" r="0.5" stroke="blue" />
<circle cx="240" cy="200" r="0.5" stroke="blue" />
<path d="M 240 200 A 103.46153846153845 103.46153846153845 0 1 0 40 200" stroke="red" />
<circle cx="240" cy="200" r="0.5" stroke="blue" />
<circle cx="40" cy="200" r="0.5" stroke="blue" />
<line x1="42.121320343559645" y1="202.12132034355966" x2="136.22146922283667" y2="108.02117146428259" stroke="violet" />
<path d="M 136.22146922283667 108.02117146428259 A 91.38834764831844 91.38834764831844 0 0 0 240.42426406871192 202.9698484809835" stroke="violet" />
<path d="M 242.8996282527881 200.76951672862452 A 106.46153846153845 106.46153846153845 0 1 0 37.100371747211895 200.76951672862452" stroke="violet" />
<path d="M 240.42426406871192 202.9698484809835 A 3 3 0 0 0 242.8996282527881 200.76951672862452" stroke="violet" />
<path d="M 37.100371747211895 200.76951672862452 A 3 3 0 0 0 42.121320343559645 202.12132034355966" stroke="violet" />
<circle cx="42.121320343559645" cy="202.12132034355966" r="0.1" stroke="green" />
<circle cx="136.22146922283667" cy="108.02117146428259" r="0.1" stroke="green" />
<circle cx="136.22146922283667" cy="108.02117146428259" r="0.1" stroke="green" />
<circle cx="240.42426406871192" cy="202.9698484809835" r="0.1" stroke="green" />
<circle cx="242.8996282527881" cy="200.76951672862452" r="0.1" stroke="green" />
<circle cx="37.100371747211895" cy="200.76951672862452" r="0.1" stroke="green" />
<circle cx="240.42426406871192" cy="202.9698484809835" r="0.1" stroke="green" />
<circle cx="242.8996282527881" cy="200.76951672862452" r="0.1" stroke="green" />
<circle cx="37.100371747211895" cy="200.76951672862452" r="0.1" stroke="green" />
<circle cx="42.121320343559645" cy="202.12132034355966" r="0.1" stroke="green" />
<line x1="40" y1="200" x2="140" y2="100" stroke="red" />
<circle cx="40" cy="200" r="0.5" stroke="blue" />
<circle cx="140" cy="100" r="0.5" stroke="blue" />
<path d="M 140 100 A 88.38834764831844 88.38834764831844 0 0 0 240 200" stroke="red" />
<circle cx="140" cy="100" r="0.5" stroke="blue" />
<circle cx="240" cy="200" r="0.5" stroke="blue" />
<path d="M 240 200 A 103.46153846153845 103.46153846153845 0 1 0 40 200" stroke="red" />
<circle cx="240" cy="200" r="0.5" stroke="blue" />
<circle cx="40" cy="200" r="0.5" stroke="blue" />
<line x1="44.242640687119284" y1="204.2426406871193" x2="133.15412193420977" y2="115.33115944002881" stroke="violet" />
<path d="M 133.15412193420977 115.33115944002881 A 94.38834764831844 94.38834764831844 0 0 0 240.84852813742387 205.939696961967" stroke="violet" />
<path d="M 245.7992565055762 201.53903345724908 A 109.46153846153845 109.46153846153845 0 1 0 34.20074349442379 201.53903345724908" stroke="violet" />
<path d="M 240.84852813742387 205.939696961967 A 6 6 0 0 0 245.7992565055762 201.53903345724908" stroke="violet" />
<path d="M 34.20074349442379 201.53903345724908 A 6 6 0 0 0 44.242640687119284 204.2426406871193" stroke="violet" />
<circle cx="44.242640687119284" cy="204.2426406871193" r="0.1" stroke="green" />
<circle cx="133.15412193420977" cy="115.33115944002881" r="0.1" stroke="green" />
<circle cx="133.15412193420977" cy="115.33115944002881" r="0.1" stroke="green" />
<circle cx="240.84852813742387" cy="205.939696961967" r="0.1" stroke="green" />
<circle cx="245.7992565055762" cy="201.53903345724908" r="0.1" stroke="green" />
<circle cx="34.20074349442379" cy="201.53903345724908" r="0.1" stroke="green" />
<circle cx="240.84852813742387" cy="205.939696961967" r="0.1" stroke="green" />
<circle cx="245.7992565055762" cy="201.53903345724908" r="0.1" stroke="green" />
<circle cx="34.20074349442379" cy="201.53903345724908" r="0.1" stroke="green" />
<circle cx="44.242640687119284" cy="204.2426406871193" r="0.1" stroke="green" />
<line x1="40" y1="200" x2="140" y2="100" stroke="red" />
<circle cx="40" cy="200" r="0.5" stroke="blue" />
<circle cx="140" cy="100" r="0.5" stroke="blue" />
<path d="M 140 100 A 88.38834764831844 88.38834764831844 0 0 0 240 200" stroke="red" />
<circle cx="140" cy="100" r="0.5" stroke="blue" />
<circle cx="240" cy="200" r="0.5" stroke="blue" />
<path d="M 240 200 A 103.46153846153845 103.46153846153845 0 1 0 40 200" stroke="red" />
<circle cx="240" cy="200" r="0.5" stroke="blue" />
<circle cx="40" cy="200" r="0.5" stroke="blue" />
<line x1="46.36396103067893" y1="206.36396103067892" x2="130.58975308815988" y2="122.13816897319796" stroke="violet" />
<path d="M 130.58975308815988 122.13816897319796 A 97.38834764831844 97.38834764831844 0 0 0 241.2727922061358 208.9095454429505" stroke="violet" />
<path d="M 248.6988847583643 202.3085501858736 A 112.46153846153845 112.46153846153845 0 1 0 31.30111524163569 202.3085501858736" stroke="violet" />
<path d="M 241.2727922061358 208.9095454429505 A 9 9 0 0 0 248.6988847583643 202.3085501858736" stroke="violet" />
<path d="M 31.30111524163569 202.3085501858736 A 9 9 0 0 0 46.36396103067893 206.36396103067892" stroke="violet" />
<circle cx="46.36396103067893" cy="206.36396103067892" r="0.1" stroke="green" />
<circle cx="130.58975308815988" cy="122.13816897319796" r="0.1" stroke="green" />
<circle cx="130.58975308815988" cy="122.13816897319796" r="0.1" stroke="green" />
<circle cx="241.2727922061358" cy="208.9095454429505" r="0.1" stroke="green" />
<circle cx="248.6988847583643" cy="202.3085501858736" r="0.1" stroke="green" />
<circle cx="31.30111524163569" cy="202.3085501858736" r="0.1" stroke="green" />
<circle cx="241.2727922061358" cy="208.9095454429505" r="0.1" stroke="green" />
<circle cx="248.6988847583643" cy="202.3085501858736" r="0.1" stroke="green" />
<circle cx="31.30111524163569" cy="202.3085501858736" r="0.1" stroke="green" />
<circle cx="46.36396103067893" cy="206.36396103067892" r="0.1" stroke="green" />
<line x1="40" y1="200" x2="140" y2="100" stroke="red" />
<circle cx="40" cy="200" r="0.5" stroke="blue" />
<circle cx="140" cy="100" r="0.5" stroke="blue" />
<path d="M 140 100 A 88.38834764831844 88.38834764831844 0 0 0 240 200" stroke="red" />
<circle cx="140" cy="100" r="0.5" stroke="blue" />
<circle cx="240" cy="200" r="0.5" stroke="blue" />
<path d="M 240 200 A 103.46153846153845 103.46153846153845 0 1 0 40 200" stroke="red" />
<circle cx="240" cy="200" r="0.5" stroke="blue" />
<circle cx="40" cy="200" r="0.5" stroke="blue" />
<line x1="48.48528137423857" y1="208.48528137423858" x2="128.40543846716145" y2="128.56512428131572" stroke="violet" />
<path d="M 128.40543846716145 128.56512428131572 A 100.38834764831844 100.38834764831844 0 0 0 241.6970562748477 211.879393923934" stroke="violet" />
<path d="M 251.59851301115242 203.07806691449815 A 115.46153846153845 115.46153846153845 0 1 0 28.401486988847584 203.07806691449815" stroke="violet" />
<path d="M 241.6970562748477 211.879393923934 A 12 12 0 0 0 251.59851301115242 203.07806691449815" stroke="violet" />
<path d="M 28.401486988847584 203.07806691449815 A 12 12 0 0 0 48.48528137423857 208.48528137423858" stroke="violet" />
<circle cx="48.48528137423857" cy="208.48528137423858" r="0.1" stroke="green" />
<circle cx="128.40543846716145" cy="128.56512428131572" r="0.1" stroke="green" />
<circle cx="128.40543846716145" cy="128.56512428131572" r="0.1" stroke="green" />
<circle cx="241.6970562748477" cy="211.879393923934" r="0.1" stroke="green" />
<circle cx="251.59851301115242" cy="203.07806691449815" r="0.1" stroke="green" />
<circle cx="28.401486988847584" cy="203.07806691449815" r="0.1" stroke="green" />
<circle cx="241.6970562748477" cy="211.879393923934" r="0.1" stroke="green" />
<circle cx="251.59851301115242" cy="203.07806691449815" r="0.1" stroke="green" />
<circle cx="28.401486988847584" cy="203.07806691449815" r="0.1" stroke="green" />
<circle cx="48.48528137423857" cy="208.48528137423858" r="0.1" stroke="green" />
<line x1="40" y1="200" x2="140" y2="100" stroke="red" />
<circle cx="40" cy="200" r="0.5" stroke="blue" />
<circle cx="140" cy="100" r="0.5" stroke="blue" />
<path d="M 140 100 A 88.38834764831844 88.38834764831844 0 0 0 240 200" stroke="red" />
<circle cx="140" cy="100" r="0.5" stroke="blue" />
<circle cx="240" cy="200" r="0.5" stroke="blue" />
<path d="M 240 200 A 103.46153846153845 103.46153846153845 0 1 0 40 200" stroke="red" />
<circle cx="240" cy="200" r="0.5" stroke="blue" />
<circle cx="40" cy="200" r="0.5" stroke="blue" />
<line x1="50.60660171779821" y1="210.6066017177982" x2="126.52141367306949" y2="134.69178976252695" stroke="violet" />
<path d="M 126.52141367306949 134.69178976252695 A 103.38834764831844 103.38834764831844 0 0 0 242.12132034355963 214.8492424049175" stroke="violet" />
<path d="M 254.4981412639405 203.84758364312268 A 118.46153846153845 118.46153846153845 0 1 0 25.50185873605948 203.84758364312268" stroke="violet" />
<path d="M 242.12132034355963 214.8492424049175 A 15 15 0 0 0 254.4981412639405 203.84758364312268" stroke="violet" />
<path d="M 25.50185873605948 203.84758364312268 A 15 15 0 0 0 50.60660171779821 210.6066017177982" stroke="violet" />
<circle cx="50.60660171779821" cy="210.6066017177982" r="0.1" stroke="green" />
<circle cx="126.52141367306949" cy="134.69178976252695" r="0.1" stroke="green" />
<circle cx="126.52141367306949" cy="134.69178976252695" r="0.1" stroke="green" />
<circle cx="242.12132034355963" cy="214.8492424049175" r="0.1" stroke="green" />
<circle cx="254.4981412639405" cy="203.84758364312268" r="0.1" stroke="green" />
<circle cx="25.50185873605948" cy="203.84758364312268" r="0.1" stroke="green" />
<circle cx="242.12132034355963" cy="214.8492424049175" r="0.1" stroke="green" />
<circle cx="254.4981412639405" cy="203.84758364312268" r="0.1" stroke="green" />
<circle cx="25.50185873605948" cy="203.84758364312268" r="0.1" stroke="green" />
<circle cx="50.60660171779821" cy="210.6066017177982" r="0.1" stroke="green" />
<line x1="40" y1="200" x2="140" y2="100" stroke="red" />
<circle cx="40" cy="200" r="0.5" stroke="blue" />
<circle cx="140" cy="100" r="0.5" stroke="blue" />
<path d="M 140 100 A 88.38834764831844 88.38834764831844 0 0 0 240 200" stroke="red" />
<circle cx="140" cy="100" r="0.5" stroke="blue" />
<circle cx="240" cy="200" r="0.5" stroke="blue" />
<path d="M 240 200 A 103.46153846153845 103.46153846153845 0 1 0 40 200" stroke="red" />
<circle cx="240" cy="200" r="0.5" stroke="blue" />
<circle cx="40" cy="200" r="0.5" stroke="blue" />
<line x1="52.72792206135786" y1="212.72792206135784" x2="124.88243664877929" y2="140.57340747393638" stroke="violet" />
<path d="M 124.88243664877929 140.57340747393638 A 106.38834764831844 106.38834764831844 0 0 0 242.54558441227158 217.819090885901" stroke="violet" />
<path d="M 257.3977695167286 204.6171003717472 A 121.46153846153845 121.46153846153845 0 1 0 22.602230483271377 204.6171003717472" stroke="violet" />
<path d="M 242.54558441227158 217.819090885901 A 18 18 0 0 0 257.3977695167286 204.6171003717472" stroke="violet" />
<path d="M 22.602230483271377 204.6171003717472 A 18 18 0 0 0 52.72792206135786 212.72792206135784" stroke="violet" />
<circle cx="52.72792206135786" cy="212.72792206135784" r="0.1" stroke="green" />
<circle cx="124.88243664877929" cy="140.57340747393638" r="0.1" stroke="green" />
<circle cx="124.88243664877929" cy="140.57340747393638" r="0.1" stroke="green" />
<circle cx="242.54558441227158" cy="217.819090885901" r="0.1" stroke="green" />
<circle cx="257.3977695167286" cy="204.6171003717472" r="0.1" stroke="green" />
<circle cx="22.602230483271377" cy="204.6171003717472" r="0.1" stroke="green" />
<circle cx="242.54558441227158" cy="217.819090885901" r="0.1" stroke="green" />
<circle cx="257.3977695167286" cy="204.6171003717472" r="0.1" stroke="green" />
<circle cx="22.602230483271377" cy="204.6171003717472" r="0.1" stroke="green" />
<circle cx="52.72792206135786" cy="212.72792206135784" r="0.1" stroke="green" />
<line x1="40" y1="200" x2="140" y2="100" stroke="red" />
<circle cx="40" cy="200" r="0.5" stroke="blue" />
<circle cx="140" cy="100" r="0.5" stroke="blue" />
<path d="M 140 100 A 88.38834764831844 88.38834764831844 0 0 0 240 200" stroke="red" />
<circle cx="140" cy="100" r="0.5" stroke="blue" />
<circle cx="240" cy="200" r="0.5" stroke="blue" />
<path d="M 240 200 A 103.46153846153845 103.46153846153845 0 1 0 40 200" stroke="red" />
<circle cx="240" cy="200" r="0.5" stroke="blue" />
<circle cx="40" cy="200" r="0.5" stroke="blue" />
<line x1="54.8492424049175" y1="214.8492424049175" x2="123.44837491323466" y2="146.25010989660035" stroke="violet" />
<path d="M 123.44837491323466 146.25010989660035 A 109.38834764831844 109.38834764831844 0 0 0 242.9698484809835 220.7889393668845" stroke="violet" />
<path d="M 260.29739776951675 205.38661710037175 A 124.46153846153845 124.46153846153845 0 1 0 19.702602230483272 205.38661710037175" stroke="violet" />
<path d="M 242.9698484809835 220.7889393668845 A 21 21 0 0 0 260.29739776951675 205.38661710037175" stroke="violet" />
<path d="M 19.702602230483272 205.38661710037175 A 21 21 0 0 0 54.8492424049175 214.8492424049175" stroke="violet" />
<circle cx="54.8492424049175" cy="214.8492424049175" r="0.1" stroke="green" />
<circle cx="123.44837491323466" cy="146.25010989660035" r="0.1" stroke="green" />
<circle cx="123.44837491323466" cy="146.25010989660035" r="0.1" stroke="green" />
<circle cx="242.9698484809835" cy="220.7889393668845" r="0.1" stroke="green" />
<circle cx="260.29739776951675" cy="205.38661710037175" r="0.1" stroke="green" />
<circle cx="19.702602230483272" cy="205.38661710037175" r="0.1" stroke="green" />
<circle cx="242.9698484809835" cy="220.7889393668845" r="0.1" stroke="green" />
<circle cx="260.29739776951675" cy="205.38661710037175" r="0.1" stroke="green" />
<circle cx="19.702602230483272" cy="205.38661710037175" r="0.1" stroke="green" />
<circle cx="54.8492424049175" cy="214.8492424049175" r="0.1" stroke="green" />
<line x1="40" y1="200" x2="140" y2="100" stroke="red" />
<circle cx="40" cy="200" r="0.5" stroke="blue" />
<circle cx="140" cy="100" r="0.5" stroke="blue" />
<path d="M 140 100 A 88.38834764831844 88.38834764831844 0 0 0 240 200" stroke="red" />
<circle cx="140" cy="100" r="0.5" stroke="blue" />
<circle cx="240" cy="200" r="0.5" stroke="blue" />
<path d="M 240 200 A 103.46153846153845 103.46153846153845 0 1 0 40 200" stroke="red" />
<circle cx="240" cy="200" r="0.5" stroke="blue" />
<circle cx="40" cy="200" r="0.5" stroke="blue" />
<line x1="56.970562748477136" y1="216.97056274847714" x2="122.18898405509665" y2="151.75214144185762" stroke="violet" />
<path d="M 122.18898405509665 151.75214144185762 A 112.38834764831844 112.38834764831844 0 0 0 243.39411254969542 223.758787847868" stroke="violet" />
<path d="M 263.19702602230484 206.1561338289963 A 127.46153846153845 127.46153846153845 0 1 0 16.802973977695167 206.1561338289963" stroke="violet" />
<path d="M 243.39411254969542 223.758787847868 A 24 24 0 0 0 263.19702602230484 206.1561338289963" stroke="violet" />
<path d="M 16.802973977695167 206.1561338289963 A 24 24 0 0 0 56.970562748477136 216.97056274847714" stroke="violet" />
<circle cx="56.970562748477136" cy="216.97056274847714" r="0.1" stroke="green" />
<circle cx="122.18898405509665" cy="151.75214144185762" r="0.1" stroke="green" />
<circle cx="122.18898405509665" cy="151.75214144185762" r="0.1" stroke="green" />
<circle cx="243.39411254969542" cy="223.758787847868" r="0.1" stroke="green" />
<circle cx="263.19702602230484" cy="206.1561338289963" r="0.1" stroke="green" />
<circle cx="16.802973977695167" cy="206.1561338289963" r="0.1" stroke="green" />
<circle cx="243.39411254969542" cy="223.758787847868" r="0.1" stroke="green" />
<circle cx="263.19702602230484" cy="206.1561338289963" r="0.1" stroke="green" />
<circle cx="16.802973977695167" cy="206.1561338289963" r="0.1" stroke="green" />
<circle cx="56.970562748477136" cy="216.97056274847714" r="0.1" stroke="green" />
<line x1="40" y1="200" x2="140" y2="100" stroke="red" />
<circle cx="40" cy="200" r="0.5" stroke="blue" />
<circle cx="140" cy="100" r="0.5" stroke="blue" />
<path d="M 140 100 A 88.38834764831844 88.38834764831844 0 0 0 240 200" stroke="red" />
<circle cx="140" cy="100" r="0.5" stroke="blue" />
<circle cx="240" cy="200" r="0.5" stroke="blue" />
<path d="M 240 200 A 103.46153846153845 103.46153846153845 0 1 0 40 200" stroke="red" />
<circle cx="240" cy="200" r="0.5" stroke="blue" />
<circle cx="40" cy="200" r="0.5" stroke="blue" />
<line x1="59.09188309203678" y1="219.09188309203677" x2="121.08079982800012" y2="157.1029663560734" stroke="violet" />
<path d="M 121.08079982800012 157.1029663560734 A 115.38834764831844 115.38834764831844 0 0 0 243.81837661840737 226.7286363288515" stroke="violet" />
<path d="M 266.09665427509293 206.92565055762083 A 130.46153846153845 130.46153846153845 0 1 0 13.903345724907062 206.92565055762083" stroke="violet" />
<path d="M 243.81837661840737 226.7286363288515 A 27 27 0 0 0 266.09665427509293 206.92565055762083" stroke="violet" />
<path d="M 13.903345724907062 206.92565055762083 A 27 27 0 0 0 59.09188309203678 219.09188309203677" stroke="violet" />
<circle cx="59.09188309203678" cy="219.09188309203677" r="0.1" stroke="green" />
<circle cx="121.08079982800012" cy="157.1029663560734" r="0.1" stroke="green" />
<circle cx="121.08079982800012" cy="157.1029663560734" r="0.1" stroke="green" />
<circle cx="243.81837661840737" cy="226.7286363288515" r="0.1" stroke="green" />
<circle cx="266.09665427509293" cy="206.92565055762083" r="0.1" stroke="green" />
<circle cx="13.903345724907062" cy="206.92565055762083" r="0.1" stroke="green" />
<circle cx="243.81837661840737" cy="226.7286363288515" r="0.1" stroke="green" />
<circle cx="266.09665427509293" cy="206.92565055762083" r="0.1" stroke="green" />
<circle cx="13.903345724907062" cy="206.92565055762083" r="0.1" stroke="green" />
<circle cx="59.09188309203678" cy="219.09188309203677" r="0.1" stroke="green" />
</svg>