<svg viewBox="0 0 450 450" xmlns="http://www.w3.org/2000/svg" fill="none" stroke-width="0.2" stroke-linecap="round">
<rect width="100%" height="100%" fill="#ffffffff"/>
<path d="M 280 310 A 32.5 32.5 0 1 0 280 250" stroke="red" />
<line x1="280" y1="250" x2="300" y2="210" stroke="red" />
<line x1="300" y1="210" x2="308" y2="218" stroke="red" />
<line x1="308" y1="218" x2="308" y2="205" stroke="red" />
<line x1="308" y1="205" x2="316" y2="213" stroke="red" />
<line x1="316" y1="213" x2="316" y2="165" stroke="red" />
<path d="M 311 160 A 3.5355339059327378 3.5355339059327378 0 0 0 316 165" stroke="red" />
<line x1="311" y1="160" x2="290" y2="160" stroke="red" />
<path d="M 258 160 A 16 16 0 0 0 290 160" stroke="red" />
<line x1="258" y1="160" x2="230" y2="160" stroke="red" />
<path d="M 218 160 A 6 6 0 0 0 230 160" stroke="red" />
<line x1="218" y1="160" x2="180.001" y2="160" stroke="red" />
<path d="M 180.001 160 A 25.000000002619373 25.000000002619373 0 1 0 180 160" stroke="red" />
<line x1="180" y1="160" x2="128" y2="160" stroke="red" />
<line x1="128" y1="160" x2="156.5703787644799" y2="205.11681303263757" stroke="red" />
<path d="M 262 260 A 66.99999999999999 66.99999999999999 0 0 0 156.5703787644799 205.11681303263757" stroke="red" />
<line x1="262" y1="260" x2="230" y2="260" stroke="red" />
<path d="M 230 260 A 35 35 0 0 0 160 260" stroke="red" />
<line x1="160" y1="260" x2="180" y2="310" stroke="red" />
<line x1="180" y1="310" x2="280" y2="310" stroke="red" />
<line x1="321" y1="213" x2="321" y2="165" stroke="black" />
<line x1="311" y1="155" x2="290" y2="155" stroke="black" />
<path d="M 263 160 A 11 11 0 0 0 285 160" stroke="black" />
<line x1="258" y1="155" x2="230" y2="155" stroke="black" />
<path d="M 223 160 A 1 1 0 0 0 225 160" stroke="black" />
<line x1="157.63982021935857" y1="155" x2="128" y2="155" stroke="black" />
<line x1="218" y1="155" x2="202.3611797806414" y2="155" stroke="black" />
<path d="M 202.3611797806414 155 A 30.000000002619373 30.000000002619373 0 1 0 157.63982021935857 155" stroke="black" />
<line x1="123.77575214881875" y1="162.67501964325322" x2="152.34613091329865" y2="207.7918326758908" stroke="black" />
<line x1="256.7980582219215" y1="255" x2="234.68626966596887" y2="255" stroke="black" />
<path d="M 256.7980582219215 255 A 61.999999999999986 61.999999999999986 0 0 0 159.43826094623512 209.2125732540825" stroke="black" />
<path d="M 234.68626966596887 255 A 40 40 0 0 0 155 260" stroke="black" />
<line x1="155.3576165455737" y1="261.8569533817705" x2="175.3576165455737" y2="311.8569533817705" stroke="black" />
<line x1="180" y1="315" x2="279.0370879821637" y2="315" stroke="black" />
<line x1="301.3697573585445" y1="218.44082517040994" x2="289.27050983124843" y2="242.6393202250021" stroke="black" />
<line x1="301.3697573585445" y1="218.44082517040994" x2="304.4644660940673" y2="221.53553390593274" stroke="black" />
<path d="M 279.0370879821637 315 A 37.5 37.5 0 1 0 289.27050983124843 242.6393202250021" stroke="black" />
<path d="M 304.4644660940673 221.53553390593274 A 5 5 0 0 0 313 218" stroke="black" />
<line x1="313" y1="218" x2="313" y2="217" stroke="black" />
<path d="M 313 217 A 5 5 0 0 0 321 213" stroke="black" />
<path d="M 316 160 A 5 5 0 0 0 311 155" stroke="black" />
<path d="M 321 165 A 5 5 0 0 0 316 160" stroke="black" />
<path d="M 290 155 A 5 5 0 0 0 285 160" stroke="black" />
<path d="M 263 160 A 5 5 0 0 0 258 155" stroke="black" />
<path d="M 230 155 A 5 5 0 0 0 225 160" stroke="black" />
<path d="M 223 160 A 5 5 0 0 0 218 155" stroke="black" />
<path d="M 128 155 A 5 5 0 0 0 123.77575214881875 162.67501964325322" stroke="black" />
<path d="M 152.34613091329865 207.7918326758908 A 5 5 0 0 0 159.43826094623512 209.2125732540825" stroke="black" />
<path d="M 155 260 A 5 5 0 0 0 155.3576165455737 261.8569533817705" stroke="black" />
<path d="M 175.3576165455737 311.8569533817705 A 5 5 0 0 0 180 315" stroke="black" />
<line x1="326" y1="213" x2="326" y2="165" stroke="black" />
<line x1="311" y1="150" x2="290" y2="150" stroke="black" />
<path d="M 268 160 A 6 6 0 0 0 280 160" stroke="black" />
<line x1="258" y1="150" x2="230" y2="150" stroke="black" />
<line x1="148.37772339428787" y1="150" x2="128" y2="150" stroke="black" />
<line x1="218" y1="150" x2="211.6232766057121" y2="150" stroke="black" />
<path d="M 211.6232766057121 150 A 35.00000000261937 35.00000000261937 0 1 0 148.37772339428787 150" stroke="black" />
<line x1="119.5515042976375" y1="165.35003928650644" x2="148.1218830621174" y2="210.466852319144" stroke="black" />
<line x1="251.1159513863928" y1="250" x2="238.87482193696061" y2="250" stroke="black" />
<path d="M 251.1159513863928 250 A 56.999999999999986 56.999999999999986 0 0 0 162.30614312799037 213.3083334755275" stroke="black" />
<path d="M 238.87482193696061 250 A 45 45 0 0 0 150 260" stroke="black" />
<line x1="150.7152330911474" y1="263.71390676354105" x2="170.7152330911474" y2="313.71390676354105" stroke="black" />
<path d="M 316.67331655684154 222.9773064909465 A 10 10 0 0 0 326 213" stroke="black" />
<line x1="297.294677816028" y1="237.7713241429418" x2="302.8841704349208" y2="226.59233890515625" stroke="black" />
<line x1="180" y1="320" x2="278.13859338365495" y2="320" stroke="black" />
<path d="M 278.13859338365495 320 A 42.5 42.5 0 1 0 297.294677816028 237.7713241429418" stroke="black" />
<path d="M 302.8841704349208 226.59233890515625 A 10 10 0 0 0 316.67331655684154 222.9773064909465" stroke="black" />
<path d="M 320.1143782776615 155.8856217223385 A 10 10 0 0 0 311 150" stroke="black" />
<path d="M 326 165 A 10 10 0 0 0 320.1143782776615 155.8856217223385" stroke="black" />
<path d="M 290 150 A 10 10 0 0 0 280 160" stroke="black" />
<path d="M 268 160 A 10 10 0 0 0 258 150" stroke="black" />
<path d="M 224 152 A 10 10 0 0 0 218 150" stroke="black" />
<path d="M 230 150 A 10 10 0 0 0 224 152" stroke="black" />
<path d="M 128 150 A 10 10 0 0 0 119.5515042976375 165.35003928650644" stroke="black" />
<path d="M 148.1218830621174 210.466852319144 A 10 10 0 0 0 162.30614312799037 213.3083334755275" stroke="black" />
<path d="M 150 260 A 10 10 0 0 0 150.7152330911474 263.71390676354105" stroke="black" />
<path d="M 170.7152330911474 313.71390676354105 A 10 10 0 0 0 180 320" stroke="black" />
<line x1="331" y1="213" x2="331" y2="165" stroke="black" />
<line x1="311" y1="145" x2="290" y2="145" stroke="black" />
<path d="M 273 160 A 1 1 0 0 0 275 160" stroke="black" />
<line x1="258" y1="145" x2="230" y2="145" stroke="black" />
<line x1="115.32725644645626" y1="168.02505892975967" x2="143.89763521093616" y2="213.14187196239723" stroke="black" />
<line x1="244.78955713801838" y1="245" x2="242.6969600708473" y2="245" stroke="black" />
<path d="M 244.78955713801838 245 A 51.999999999999986 51.999999999999986 0 0 0 165.1740253097456 217.40409369697244" stroke="black" />
<path d="M 242.6969600708473 245 A 50 50 0 0 0 145 260" stroke="black" />
<line x1="146.07284963672112" y1="265.57086014531154" x2="166.07284963672112" y2="315.57086014531154" stroke="black" />
<path d="M 319.5466712655986 227.57467402495772 A 15 15 0 0 0 331 213" stroke="black" />
<line x1="304.72098636385294" y1="234.099046934791" x2="305.3853303695868" y2="232.77035892332324" stroke="black" />
<line x1="180" y1="325" x2="277.29309367425446" y2="325" stroke="black" />
<path d="M 277.29309367425446 325 A 47.5 47.5 0 1 0 304.72098636385294 234.099046934791" stroke="black" />
<path d="M 305.3853303695868 232.77035892332324 A 15 15 0 0 0 319.5466712655986 227.57467402495772" stroke="black" />
<path d="M 323.80776406404414 152.19223593595586 A 15 15 0 0 0 311 145" stroke="black" />
<path d="M 331 165 A 15 15 0 0 0 323.80776406404414 152.19223593595586" stroke="black" />
<path d="M 290 145 A 15 15 0 0 0 275 160" stroke="black" />
<path d="M 273 160 A 15 15 0 0 0 258 145" stroke="black" />
<path d="M 224 146.2522729151325 A 15 15 0 0 0 218.7257927984163 145.01756946240812" stroke="black" />
<line x1="141.27066653460588" y1="145" x2="128" y2="145" stroke="black" />
<path d="M 218.7257927984163 145.01756946240812 A 40.00000000261937 40.00000000261937 0 1 0 141.27066653460588 145" stroke="black" />
<path d="M 230 145 A 15 15 0 0 0 224 146.2522729151325" stroke="black" />
<path d="M 128 145 A 15 15 0 0 0 115.32725644645626 168.02505892975967" stroke="black" />
<path d="M 143.89763521093616 213.14187196239723 A 15 15 0 0 0 165.1740253097456 217.40409369697244" stroke="black" />
<path d="M 145 260 A 15 15 0 0 0 146.07284963672112 265.57086014531154" stroke="black" />
<path d="M 166.07284963672112 315.57086014531154 A 15 15 0 0 0 180 325" stroke="black" />
<line x1="336" y1="213" x2="336" y2="165" stroke="black" />
<line x1="311" y1="140" x2="290" y2="140" stroke="black" />
<line x1="258" y1="140" x2="230" y2="140" stroke="black" />
<line x1="111.10300859527501" y1="170.7000785730129" x2="139.6733873597549" y2="215.81689160565045" stroke="black" />
<line x1="141.43046618229482" y1="267.4278135270821" x2="161.43046618229482" y2="317.4278135270821" stroke="black" />
<path d="M 322.3009490126783 231.98151842028525 A 20 20 0 0 0 336 213" stroke="black" />
<path d="M 319.01958361262103 234.69037977412302 A 20 20 0 0 0 322.3009490126783 231.98151842028525" stroke="black" />
<line x1="180" y1="330" x2="276.4921894064179" y2="330" stroke="black" />
<path d="M 276.4921894064179 330 A 52.5 52.5 0 0 0 319.01958361262103 234.69037977412302" stroke="black" />
<path d="M 327.4194109070751 148.58058909292492 A 20 20 0 0 0 311 140" stroke="black" />
<path d="M 336 165 A 20 20 0 0 0 327.4194109070751 148.58058909292492" stroke="black" />
<path d="M 274 148 A 20 20 0 0 0 258 140" stroke="black" />
<path d="M 290 140 A 20 20 0 0 0 274 148" stroke="black" />
<path d="M 230 140 A 20 20 0 0 0 224.63376813768838 140.73335640024675" stroke="black" />
<line x1="135.27914044710235" y1="140" x2="128" y2="140" stroke="black" />
<path d="M 224.63376813768838 140.73335640024675 A 45.00000000261937 45.00000000261937 0 1 0 135.27914044710235 140" stroke="black" />
<path d="M 128 140 A 20 20 0 0 0 111.10300859527501 170.7000785730129" stroke="black" />
<path d="M 139.6733873597549 215.81689160565045 A 20 20 0 0 0 152.77779645982514 224.75392889679694" stroke="black" />
<path d="M 152.77779645982514 224.75392889679694 A 55 55 0 0 0 140 260" stroke="black" />
<path d="M 140 260 A 20 20 0 0 0 141.43046618229482 267.4278135270821" stroke="black" />
<path d="M 161.43046618229482 317.4278135270821 A 20 20 0 0 0 180 330" stroke="black" />
<line x1="341" y1="213" x2="341" y2="165" stroke="black" />
<line x1="311" y1="135" x2="290" y2="135" stroke="black" />
<line x1="106.87876074409377" y1="173.3750982162661" x2="135.44913950857367" y2="218.4919112489037" stroke="black" />
<line x1="136.78808272786853" y1="269.2847669088526" x2="156.78808272786853" y2="319.2847669088526" stroke="black" />
<line x1="180" y1="335" x2="275.72949016875157" y2="335" stroke="black" />
<path d="M 275.72949016875157 335 A 57.5 57.5 0 0 0 328.12291772697824 234.86400845647745" stroke="black" />
<path d="M 328.12291772697824 234.86400845647745 A 25 25 0 0 0 341 213" stroke="black" />
<path d="M 331 145 A 25 25 0 0 0 311 135" stroke="black" />
<path d="M 341 165 A 25 25 0 0 0 331 145" stroke="black" />
<path d="M 274 140.79062728770145 A 25 25 0 0 0 258 135" stroke="black" />
<path d="M 290 135 A 25 25 0 0 0 274 140.79062728770145" stroke="black" />
<line x1="130.00049999738062" y1="135" x2="128" y2="135" stroke="black" />
<line x1="258" y1="135" x2="230.00050000261936" y2="135" stroke="black" />
<path d="M 230.00050000261936 135 A 50.00000000261937 50.00000000261937 0 0 0 130.00049999738062 135" stroke="black" />
<path d="M 128 135 A 25 25 0 0 0 106.87876074409377 173.3750982162661" stroke="black" />
<path d="M 135.44913950857367 218.4919112489037 A 25 25 0 0 0 144.78285902681853 227.16345401112324" stroke="black" />
<path d="M 144.78285902681853 227.16345401112324 A 60 60 0 0 0 135 260" stroke="black" />
<path d="M 135 260 A 25 25 0 0 0 136.78808272786853 269.2847669088526" stroke="black" />
<path d="M 156.78808272786853 319.2847669088526 A 25 25 0 0 0 180 335" stroke="black" />
<line x1="346" y1="213" x2="346" y2="165" stroke="black" />
<line x1="311" y1="130" x2="290" y2="130" stroke="black" />
<line x1="102.6545128929125" y1="176.05011785951933" x2="131.22489165739242" y2="221.16693089215693" stroke="black" />
<line x1="132.14569927344223" y1="271.1417202906231" x2="152.14569927344223" y2="321.1417202906231" stroke="black" />
<line x1="180" y1="340" x2="275" y2="340" stroke="black" />
<path d="M 275 340 A 62.5 62.5 0 0 0 336.127316772601 235.24614842024064" stroke="black" />
<path d="M 336.127316772601 235.24614842024064 A 30 30 0 0 0 346 213" stroke="black" />
<path d="M 334.56537443294087 141.43462556705913 A 30 30 0 0 0 311 130" stroke="black" />
<path d="M 346 165 A 30 30 0 0 0 334.56537443294087 141.43462556705913" stroke="black" />
<path d="M 274 134.62284491910094 A 30 30 0 0 0 258 130" stroke="black" />
<path d="M 290 130 A 30 30 0 0 0 274 134.62284491910094" stroke="black" />
<path d="M 125.21658558380517 130.12940234632526 A 30 30 0 0 0 102.6545128929125 176.05011785951933" stroke="black" />
<line x1="258" y1="130" x2="234.77275575292956" y2="130" stroke="black" />
<path d="M 234.77275575292956 130 A 55.00000000261937 55.00000000261937 0 0 0 125.21658558380517 130.12940234632526" stroke="black" />
<path d="M 131.22489165739242 221.16693089215693 A 30 30 0 0 0 138.0309475105223 228.7026030083789" stroke="black" />
<path d="M 138.0309475105223 228.7026030083789 A 65 65 0 0 0 130 260" stroke="black" />
<path d="M 130 260 A 30 30 0 0 0 132.14569927344223 271.1417202906231" stroke="black" />
<path d="M 152.14569927344223 321.1417202906231 A 30 30 0 0 0 180 340" stroke="black" />
<line x1="351" y1="213" x2="351" y2="165" stroke="black" />
<line x1="311" y1="125" x2="290" y2="125" stroke="black" />
<line x1="98.43026504173126" y1="178.72513750277255" x2="127.00064380621116" y2="223.84195053541015" stroke="black" />
<line x1="127.50331581901592" y1="272.99867367239364" x2="147.50331581901594" y2="322.99867367239364" stroke="black" />
<line x1="180" y1="345" x2="274.2997252767987" y2="345" stroke="black" />
<path d="M 274.2997252767987 345 A 67.5 67.5 0 0 0 343.0253847125228 235.2402468767804" stroke="black" />
<path d="M 343.0253847125228 235.2402468767804 A 35 35 0 0 0 351 213" stroke="black" />
<path d="M 338.1221445044903 137.87785549550972 A 35 35 0 0 0 311 125" stroke="black" />
<path d="M 351 165 A 35 35 0 0 0 338.1221445044903 137.87785549550972" stroke="black" />
<path d="M 274 128.87123516745322 A 35 35 0 0 0 258 125" stroke="black" />
<path d="M 290 125 A 35 35 0 0 0 274 128.87123516745322" stroke="black" />
<path d="M 127.00064380621116 223.84195053541015 A 35 35 0 0 0 131.8194448763848 229.8633536326315" stroke="black" />
<line x1="258" y1="125" x2="239.16129783325027" y2="125" stroke="black" />
<path d="M 239.16129783325027 125 A 60.00000000261937 60.00000000261937 0 0 0 120.71523570554385 125.7665045726526" stroke="black" />
<path d="M 120.71523570554385 125.7665045726526 A 35 35 0 0 0 98.43026504173126 178.72513750277255" stroke="black" />
<path d="M 131.8194448763848 229.8633536326315 A 70 70 0 0 0 125 260" stroke="black" />
<path d="M 125 260 A 35 35 0 0 0 127.50331581901592 272.99867367239364" stroke="black" />
<path d="M 147.50331581901594 322.99867367239364 A 35 35 0 0 0 180 345" stroke="black" />
<line x1="356" y1="213" x2="356" y2="165" stroke="black" />
<line x1="311" y1="120" x2="290" y2="120" stroke="black" />
<line x1="94.20601719055001" y1="181.40015714602578" x2="122.77639595502991" y2="226.51697017866337" stroke="black" />
<line x1="122.86093236458963" y1="274.8556270541642" x2="142.86093236458964" y2="324.85562705416413" stroke="black" />
<line x1="180" y1="350" x2="273.6254139118231" y2="350" stroke="black" />
<path d="M 273.6254139118231 350 A 72.5 72.5 0 0 0 349.3781696805267 235.04308936555785" stroke="black" />
<path d="M 349.3781696805267 235.04308936555785 A 40 40 0 0 0 356 213" stroke="black" />
<path d="M 122.77639595502991 226.51697017866337 A 40 40 0 0 0 125.91341573323444 230.81020941577168" stroke="black" />
<line x1="258" y1="120" x2="243.246053205495" y2="120" stroke="black" />
<path d="M 243.246053205495 120 A 65.00000000261937 65.00000000261937 0 0 0 116.36987846683664 121.72807460913617" stroke="black" />
<path d="M 290 120 A 40 40 0 0 0 274 123.33939444035326" stroke="black" />
<path d="M 356 165 A 40 40 0 0 0 341.6735691739616 134.3264308260384" stroke="black" />
<path d="M 341.6735691739616 134.3264308260384 A 40 40 0 0 0 311 120" stroke="black" />
<path d="M 274 123.33939444035326 A 40 40 0 0 0 258 120" stroke="black" />
<path d="M 116.36987846683664 121.72807460913617 A 40 40 0 0 0 94.20601719055001 181.40015714602578" stroke="black" />
<path d="M 125.91341573323444 230.81020941577168 A 75 75 0 0 0 120 260" stroke="black" />
<path d="M 120 260 A 40 40 0 0 0 122.86093236458963 274.8556270541642" stroke="black" />
<path d="M 142.86093236458964 324.85562705416413 A 40 40 0 0 0 180 350" stroke="black" />
<line x1="361" y1="213" x2="361" y2="165" stroke="black" />
<line x1="311" y1="115" x2="290" y2="115" stroke="black" />
<line x1="89.98176933936877" y1="184.075176789279" x2="118.55214810384867" y2="229.1919898219166" stroke="black" />
<line x1="118.21854891016332" y1="276.7125804359347" x2="138.21854891016332" y2="326.7125804359347" stroke="black" />
<line x1="180" y1="355" x2="272.97437581023337" y2="355" stroke="black" />
<path d="M 272.97437581023337 355 A 77.5 77.5 0 0 0 355.40482288783363 234.73154235618043" stroke="black" />
<path d="M 355.40482288783363 234.73154235618043 A 45 45 0 0 0 361 213" stroke="black" />
<path d="M 118.55214810384867 229.1919898219166 A 45 45 0 0 0 120.20309289578452 231.62003016838526" stroke="black" />
<line x1="258" y1="115" x2="247.08253932701723" y2="115" stroke="black" />
<path d="M 247.08253932701723 115 A 70.00000000261937 70.00000000261937 0 0 0 112.12277641271538 117.89401739468167" stroke="black" />
<path d="M 290 115 A 45 45 0 0 0 274 117.94051831037382" stroke="black" />
<path d="M 361 165 A 45 45 0 0 0 345.2214438511238 130.7785561488762" stroke="black" />
<path d="M 345.2214438511238 130.7785561488762 A 45 45 0 0 0 311 115" stroke="black" />
<path d="M 274 117.94051831037382 A 45 45 0 0 0 258 115" stroke="black" />
<path d="M 112.12277641271538 117.89401739468167 A 45 45 0 0 0 89.98176933936877 184.075176789279" stroke="black" />
<path d="M 120.20309289578452 231.62003016838526 A 80 80 0 0 0 115 260" stroke="black" />
<path d="M 115 260 A 45 45 0 0 0 118.21854891016332 276.7125804359347" stroke="black" />
<path d="M 138.21854891016332 326.7125804359347 A 45 45 0 0 0 180 355" stroke="black" />
<line x1="366" y1="213" x2="366" y2="165" stroke="black" />
<line x1="311" y1="110" x2="290" y2="110" stroke="black" />
<line x1="85.75752148818752" y1="186.75019643253222" x2="114.32790025266742" y2="231.86700946516982" stroke="black" />
<line x1="113.57616545573703" y1="278.5695338177052" x2="133.57616545573703" y2="328.5695338177052" stroke="black" />
<path d="M 114.32790025266742 231.86700946516982 A 50 50 0 0 0 114.62801353501749 232.33515241913182" stroke="black" />
<path d="M 290 110 A 50 50 0 0 0 274 112.62912287069196" stroke="black" />
<path d="M 366 165 A 50 50 0 0 0 348.7668399491647 127.2331600508353" stroke="black" />
<path d="M 348.7668399491647 127.2331600508353 A 50 50 0 0 0 311 110" stroke="black" />
<path d="M 274 112.62912287069196 A 50 50 0 0 0 258 110" stroke="black" />
<line x1="258" y1="110" x2="250.71117812059134" y2="110" stroke="black" />
<path d="M 250.71117812059134 110 A 75.00000000261937 75.00000000261937 0 0 0 107.94266768646742 114.19930764208334" stroke="black" />
<path d="M 107.94266768646742 114.19930764208334 A 50 50 0 0 0 85.75752148818752 186.75019643253222" stroke="black" />
<path d="M 361.21532799699565 234.3441822079015 A 50 50 0 0 0 366 213" stroke="black" />
<line x1="180" y1="360" x2="272.34435562925364" y2="360" stroke="black" />
<path d="M 272.34435562925364 360 A 82.5 82.5 0 0 0 361.21532799699565 234.3441822079015" stroke="black" />
<path d="M 114.62801353501749 232.33515241913182 A 85 85 0 0 0 110 260" stroke="black" />
<path d="M 110 260 A 50 50 0 0 0 113.57616545573703 278.5695338177052" stroke="black" />
<path d="M 133.57616545573703 328.5695338177052 A 50 50 0 0 0 180 360" stroke="black" />
<line x1="371" y1="213" x2="371" y2="165" stroke="black" />
<line x1="311" y1="105" x2="290" y2="105" stroke="black" />
<line x1="108.93378200131073" y1="280.4264871994757" x2="128.93378200131073" y2="330.4264871994757" stroke="black" />
<path d="M 103.8107579601769 110.60485277338614 A 55 55 0 0 0 81.53327363700626 189.42521607578544" stroke="black" />
<line x1="180" y1="365" x2="271.7334403427048" y2="365" stroke="black" />
<path d="M 271.7334403427048 365 A 87.5 87.5 0 0 0 366.87294342712227 233.9031965751847" stroke="black" />
<path d="M 366.87294342712227 233.9031965751847 A 55 55 0 0 0 371 213" stroke="black" />
<path d="M 290 105 A 55 55 0 0 0 274 107.3787115323085" stroke="black" />
<path d="M 371 165 A 55 55 0 0 0 352.31043674065006 123.68956325934994" stroke="black" />
<path d="M 352.31043674065006 123.68956325934994 A 55 55 0 0 0 311 105" stroke="black" />
<path d="M 274 107.3787115323085 A 55 55 0 0 0 258 105" stroke="black" />
<line x1="258" y1="105" x2="254.1624848728192" y2="105" stroke="black" />
<path d="M 254.1624848728192 105 A 80.00000000261937 80.00000000261937 0 0 0 103.8107579601769 110.60485277338614" stroke="black" />
<line x1="81.53327363700626" y1="189.42521607578544" x2="109.13939613387367" y2="233.01932721846742" stroke="black" />
<path d="M 109.13939613387367 233.01932721846742 A 90 90 0 0 0 105 260" stroke="black" />
<path d="M 105 260 A 55 55 0 0 0 108.93378200131073 280.4264871994757" stroke="black" />
<path d="M 128.93378200131073 330.4264871994757 A 55 55 0 0 0 180 365" stroke="black" />
<line x1="376" y1="213" x2="376" y2="165" stroke="black" />
<line x1="311" y1="100" x2="290" y2="100" stroke="black" />
<line x1="104.29139854688444" y1="282.2834405812462" x2="124.29139854688444" y2="332.2834405812462" stroke="black" />
<path d="M 99.71491165574359 107.08541054342754 A 60 60 0 0 0 77.30902578582501 192.10023571903866" stroke="black" />
<line x1="180" y1="370" x2="271.13999063670616" y2="370" stroke="black" />
<path d="M 271.13999063670616 370 A 92.5 92.5 0 0 0 372.4173812640072 233.4225143239428" stroke="black" />
<path d="M 372.4173812640072 233.4225143239428 A 60 60 0 0 0 376 213" stroke="black" />
<path d="M 290 100 A 60 60 0 0 0 274 102.17267082079616" stroke="black" />
<path d="M 376 165 A 60 60 0 0 0 355.85268586524353 120.14731413475647" stroke="black" />
<path d="M 355.85268586524353 120.14731413475647 A 60 60 0 0 0 311 100" stroke="black" />
<path d="M 274 102.17267082079616 A 60 60 0 0 0 258 100" stroke="black" />
<line x1="258" y1="100" x2="257.460166925947" y2="100" stroke="black" />
<path d="M 257.460166925947 100 A 85.00000000261937 85.00000000261937 0 0 0 99.71491165574359 107.08541054342754" stroke="black" />
<line x1="77.30902578582501" y1="192.10023571903866" x2="103.69403658289538" y2="233.76603262039166" stroke="black" />
<path d="M 103.69403658289538 233.76603262039166 A 95 95 0 0 0 100 260" stroke="black" />
<path d="M 100 260 A 60 60 0 0 0 104.29139854688444 282.2834405812462" stroke="black" />
<path d="M 124.29139854688444 332.2834405812462 A 60 60 0 0 0 180 370" stroke="black" />
<line x1="381" y1="213" x2="381" y2="165" stroke="black" />
<line x1="311" y1="95" x2="290" y2="95" stroke="black" />
<line x1="99.64901509245814" y1="284.1403939630168" x2="119.64901509245814" y2="334.1403939630168" stroke="black" />
<path d="M 95.64687220889844 103.62380713339496 A 65 65 0 0 0 73.08477793464377 194.77525536229192" stroke="black" />
<line x1="180" y1="375" x2="270.5625890315197" y2="375" stroke="black" />
<path d="M 270.5625890315197 375 A 97.5 97.5 0 0 0 377.87515464748753 232.91143483904415" stroke="black" />
<path d="M 377.87515464748753 232.91143483904415 A 65 65 0 0 0 381 213" stroke="black" />
<path d="M 260.64986437041495 95.05403616221861 A 90.00000000261937 90.00000000261937 0 0 0 95.64687220889844 103.62380713339496" stroke="black" />
<path d="M 381 165 A 65 65 0 0 0 359.39389937671456 116.60610062328544" stroke="black" />
<path d="M 359.39389937671456 116.60610062328544 A 65 65 0 0 0 311 95" stroke="black" />
<path d="M 274 97 A 65 65 0 0 0 260.64986437041495 95.05403616221861" stroke="black" />
<path d="M 290 95 A 65 65 0 0 0 274 97" stroke="black" />
<line x1="73.08477793464377" y1="194.77525536229192" x2="98.28672125904885" y2="234.57281542964134" stroke="black" />
<path d="M 98.28672125904885 234.57281542964134 A 100 100 0 0 0 95 260" stroke="black" />
<path d="M 95 260 A 65 65 0 0 0 99.64901509245814 284.1403939630168" stroke="black" />
<path d="M 119.64901509245814 334.1403939630168 A 65 65 0 0 0 180 375" stroke="black" />
<line x1="386" y1="213" x2="386" y2="165" stroke="black" />
<line x1="311" y1="90" x2="290" y2="90" stroke="black" />
<line x1="95.00663163803185" y1="285.9973473447873" x2="115.00663163803185" y2="335.9973473447873" stroke="black" />
<path d="M 91.60079209816995 100.20787958167608 A 70 70 0 0 0 68.86053008346252 197.45027500554514" stroke="black" />
<line x1="180" y1="380" x2="270" y2="380" stroke="black" />
<path d="M 270 380 A 102.5 102.5 0 0 0 383.2647965595696 232.37645849477443" stroke="black" />
<path d="M 383.2647965595696 232.37645849477443 A 70 70 0 0 0 386 213" stroke="black" />
<path d="M 362.934299833213 113.065700166787 A 70 70 0 0 0 311 90" stroke="black" />
<path d="M 386 165 A 70 70 0 0 0 362.934299833213 113.065700166787" stroke="black" />
<path d="M 290 90 A 70 70 0 0 0 274 91.85309985039669" stroke="black" />
<path d="M 274 91.85309985039669 A 70 70 0 0 0 263.7953096703742 90.24030973531728" stroke="black" />
<path d="M 263.7953096703742 90.24030973531728 A 95.00000000261937 95.00000000261937 0 0 0 91.60079209816995 100.20787958167608" stroke="black" />
<line x1="68.86053008346252" y1="197.45027500554514" x2="92.91410144413906" y2="235.4343875296692" stroke="black" />
<path d="M 92.91410144413906 235.4343875296692 A 105 105 0 0 0 90 260" stroke="black" />
<path d="M 90 260 A 70 70 0 0 0 95.00663163803185 285.9973473447873" stroke="black" />
<path d="M 115.00663163803185 335.9973473447873 A 70 70 0 0 0 180 380" stroke="black" />
<line x1="391" y1="213" x2="391" y2="165" stroke="black" />
<line x1="311" y1="85" x2="290" y2="85" stroke="black" />
<line x1="90.36424818360555" y1="287.85430072655777" x2="110.36424818360555" y2="337.85430072655777" stroke="black" />
<path d="M 87.57239562312401 96.82873434585315 A 75 75 0 0 0 64.63628223228127 200.1252946487984" stroke="black" />
<line x1="180" y1="385" x2="269.4511388567678" y2="385" stroke="black" />
<path d="M 269.4511388567678 385 A 107.5 107.5 0 0 0 388.5997330091863 231.82229441366982" stroke="black" />
<path d="M 388.5997330091863 231.82229441366982 A 75 75 0 0 0 391 213" stroke="black" />
<path d="M 366.47405025104274 109.52594974895726 A 75 75 0 0 0 311 85" stroke="black" />
<path d="M 391 165 A 75 75 0 0 0 366.47405025104274 109.52594974895726" stroke="black" />
<path d="M 266.907346441397 85.53081725053687 A 100.00000000261937 100.00000000261937 0 0 0 87.57239562312401 96.82873434585315" stroke="black" />
<path d="M 274 86.72653959311049 A 75 75 0 0 0 266.907346441397 85.53081725053687" stroke="black" />
<path d="M 290 85 A 75 75 0 0 0 274 86.72653959311049" stroke="black" />
<line x1="64.63628223228127" y1="200.1252946487984" x2="87.57329263445187" y2="236.34619386659116" stroke="black" />
<path d="M 87.57329263445187 236.34619386659116 A 110 110 0 0 0 85 260" stroke="black" />
<path d="M 85 260 A 75 75 0 0 0 90.36424818360555 287.85430072655777" stroke="black" />
<path d="M 110.36424818360555 337.85430072655777 A 75 75 0 0 0 180 385" stroke="black" />
<line x1="396" y1="213" x2="396" y2="165" stroke="black" />
<line x1="311" y1="80" x2="290" y2="80" stroke="black" />
<line x1="85.72186472917926" y1="289.71125410832826" x2="105.72186472917926" y2="339.71125410832826" stroke="black" />
<path d="M 83.5584738146758 93.4796967060496 A 80 80 0 0 0 60.41203438110003 202.8003142920516" stroke="black" />
<line x1="180" y1="390" x2="268.9150471698585" y2="390" stroke="black" />
<path d="M 268.9150471698585 390 A 112.5 112.5 0 0 0 393.88997334191725 231.2524533363441" stroke="black" />
<path d="M 393.88997334191725 231.2524533363441 A 80 80 0 0 0 396 213" stroke="black" />
<path d="M 370.0132727772866 105.9867272227134 A 80 80 0 0 0 311 80" stroke="black" />
<path d="M 396 165 A 80 80 0 0 0 370.0132727772866 105.9867272227134" stroke="black" />
<path d="M 269.9928720177953 80.90403916276898 A 105.00000000261937 105.00000000261937 0 0 0 83.5584738146758 93.4796967060496" stroke="black" />
<path d="M 274 81.61632823093828 A 80 80 0 0 0 269.9928720177953 80.90403916276898" stroke="black" />
<path d="M 290 80 A 80 80 0 0 0 274 81.61632823093828" stroke="black" />
<line x1="60.41203438110003" y1="202.8003142920516" x2="82.26178915237114" y2="237.3042776084219" stroke="black" />
<path d="M 82.26178915237114 237.3042776084219 A 115 115 0 0 0 80 260" stroke="black" />
<path d="M 80 260 A 80 80 0 0 0 85.72186472917926 289.71125410832826" stroke="black" />
<path d="M 105.72186472917926 339.71125410832826 A 80 80 0 0 0 180 390" stroke="black" />
<line x1="401" y1="213" x2="401" y2="165" stroke="black" />
<line x1="311" y1="75" x2="290" y2="75" stroke="black" />
<line x1="81.07948127475296" y1="291.5682074900988" x2="101.07948127475296" y2="341.5682074900988" stroke="black" />
<path d="M 79.55656534503903 90.15564705124308 A 85 85 0 0 0 56.18778652991878 205.47533393530483" stroke="black" />
<line x1="180" y1="395" x2="268.3908730975176" y2="395" stroke="black" />
<path d="M 268.3908730975176 395 A 117.5 117.5 0 0 0 399.1431578842588 230.6696150788072" stroke="black" />
<path d="M 399.1431578842588 230.6696150788072 A 85 85 0 0 0 401 213" stroke="black" />
<path d="M 373.55206074732155 102.44793925267845 A 85 85 0 0 0 311 75" stroke="black" />
<path d="M 401 165 A 85 85 0 0 0 373.55206074732155 102.44793925267845" stroke="black" />
<path d="M 273.05693471047124 76.34422484296374 A 110.00000000261937 110.00000000261937 0 0 0 79.55656534503903 90.15564705124308" stroke="black" />
<path d="M 274 76.51946334623858 A 85 85 0 0 0 273.05693471047124 76.34422484296374" stroke="black" />
<path d="M 290 75 A 85 85 0 0 0 274 76.51946334623858" stroke="black" />
<line x1="56.18778652991878" y1="205.47533393530483" x2="76.97739794970235" y2="238.3051756108265" stroke="black" />
<path d="M 76.97739794970235 238.3051756108265 A 120 120 0 0 0 75 260" stroke="black" />
<path d="M 75 260 A 85 85 0 0 0 81.07948127475296 291.5682074900988" stroke="black" />
<path d="M 101.07948127475296 341.5682074900988 A 85 85 0 0 0 180 395" stroke="black" />
<line x1="406" y1="213" x2="406" y2="165" stroke="black" />
<line x1="311" y1="70" x2="290" y2="70" stroke="black" />
<line x1="76.43709782032666" y1="293.42516087186937" x2="96.43709782032666" y2="343.42516087186937" stroke="black" />
<path d="M 75.56474717097745 86.85258541304086 A 90 90 0 0 0 51.963538678737535 208.15035357855805" stroke="black" />
<line x1="180" y1="400" x2="267.8778554955097" y2="400" stroke="black" />
<path d="M 267.8778554955097 400 A 122.5 122.5 0 0 0 404.36523523046037 230.0758660882958" stroke="black" />
<path d="M 404.36523523046037 230.0758660882958 A 90 90 0 0 0 406 213" stroke="black" />
<path d="M 377.09048670988454 98.90951329011546 A 90 90 0 0 0 311 70" stroke="black" />
<path d="M 406 165 A 90 90 0 0 0 377.09048670988454 98.90951329011546" stroke="black" />
<path d="M 290 70 A 90 90 0 0 0 275.6477667016141 71.15173946920117" stroke="black" />
<path d="M 275.6477667016141 71.15173946920117 A 115.00000000261937 115.00000000261937 0 0 0 75.56474717097745 86.85258541304086" stroke="black" />
<line x1="51.963538678737535" y1="208.15035357855805" x2="71.71818658004204" y2="239.34583625787093" stroke="black" />
<path d="M 71.71818658004204 239.34583625787093 A 125 125 0 0 0 70 260" stroke="black" />
<path d="M 70 260 A 90 90 0 0 0 76.43709782032666 293.42516087186937" stroke="black" />
<path d="M 96.43709782032666 343.42516087186937 A 90 90 0 0 0 180 400" stroke="black" />
<line x1="411" y1="213" x2="411" y2="165" stroke="black" />
<line x1="311" y1="65" x2="290" y2="65" stroke="black" />
<line x1="71.79471436590036" y1="295.28211425363986" x2="91.79471436590036" y2="345.28211425363986" stroke="black" />
<path d="M 71.58149275462503 83.56733656215056 A 95 95 0 0 0 47.73929082755629 210.82537322181128" stroke="black" />
<line x1="180" y1="405" x2="267.37531094719776" y2="405" stroke="black" />
<path d="M 267.37531094719776 405 A 127.5 127.5 0 0 0 409.5609156319848 229.47285846793497" stroke="black" />
<path d="M 409.5609156319848 229.47285846793497 A 95 95 0 0 0 411 213" stroke="black" />
<path d="M 380.62860791048774 95.37139208951226 A 95 95 0 0 0 311 65" stroke="black" />
<path d="M 411 165 A 95 95 0 0 0 380.62860791048774 95.37139208951226" stroke="black" />
<path d="M 290 65 A 95 95 0 0 0 278.0095999624185 65.7597203583374" stroke="black" />
<path d="M 278.0095999624185 65.7597203583374 A 120.00000000261937 120.00000000261937 0 0 0 71.58149275462503 83.56733656215056" stroke="black" />
<line x1="47.73929082755629" y1="210.82537322181128" x2="66.48244180082712" y2="240.4235540885938" stroke="black" />
<path d="M 66.48244180082712 240.4235540885938 A 130 130 0 0 0 65 260" stroke="black" />
<path d="M 65 260 A 95 95 0 0 0 71.79471436590036 295.28211425363986" stroke="black" />
<path d="M 91.79471436590036 345.28211425363986 A 95 95 0 0 0 180 405" stroke="black" />
<line x1="180" y1="310" x2="160" y2="260" stroke="red" />
<path d="M 230 260 A 35 35 0 0 0 160 260" stroke="red" />
<line x1="230" y1="260" x2="262" y2="260" stroke="red" />
<path d="M 262 260 A 66.99999999999999 66.99999999999999 0 0 0 156.5703787644799 205.11681303263757" stroke="red" />
<line x1="156.5703787644799" y1="205.11681303263757" x2="128" y2="160" stroke="red" />
<line x1="128" y1="160" x2="180" y2="160" stroke="red" />
<path d="M 180.001 160 A 25.000000002619373 25.000000002619373 0 1 0 180 160" stroke="red" />
<line x1="180.001" y1="160" x2="218" y2="160" stroke="red" />
<path d="M 218 160 A 6 6 0 0 0 230 160" stroke="red" />
<line x1="230" y1="160" x2="258" y2="160" stroke="red" />
<path d="M 258 160 A 16 16 0 0 0 290 160" stroke="red" />
<line x1="290" y1="160" x2="311" y2="160" stroke="red" />
<path d="M 311 160 A 3.5355339059327378 3.5355339059327378 0 0 0 316 165" stroke="red" />
<line x1="316" y1="165" x2="316" y2="213" stroke="red" />
<line x1="316" y1="213" x2="308" y2="205" stroke="red" />
<line x1="308" y1="205" x2="308" y2="218" stroke="red" />
<line x1="308" y1="218" x2="300" y2="210" stroke="red" />
<line x1="300" y1="210" x2="280" y2="250" stroke="red" />
<path d="M 280 310 A 32.5 32.5 0 1 0 280 250" stroke="red" />
<line x1="280" y1="310" x2="180" y2="310" stroke="red" />
<line x1="230" y1="265" x2="262" y2="265" stroke="black" />
<line x1="137.08448073318783" y1="165" x2="180" y2="165" stroke="black" />
<line x1="137.08448073318783" y1="165" x2="158.09445626307536" y2="198.17782888411358" stroke="black" />
<path d="M 267 260 A 71.99999999999999 71.99999999999999 0 0 0 158.09445626307536 198.17782888411358" stroke="black" />
<path d="M 180.0009 155.000000001 A 20.000000002619373 20.000000002619373 0 1 0 180.00009999999997 155.000000001" stroke="black" />
<line x1="295.5278640450004" y1="207.7639320225002" x2="275.5278640450004" y2="247.7639320225002" stroke="black" />
<path d="M 281.9230769230769 305.38461538461536 A 27.5 27.5 0 1 0 281.9230769230769 254.6153846153846" stroke="black" />
<line x1="183.38516480713452" y1="305" x2="280" y2="305" stroke="black" />
<line x1="183.38516480713452" y1="305" x2="165.01432838542567" y2="259.07290894572793" stroke="black" />
<path d="M 225 260 A 30 30 0 0 0 165.01432838542567 259.07290894572793" stroke="black" />
<path d="M 225 260 A 5 5 0 0 0 230 265" stroke="black" />
<path d="M 262 265 A 5 5 0 0 0 267 260" stroke="black" />
<path d="M 180.0009 155.000000001 A 5 5 0 0 0 180.0005 155.00000002500002" stroke="black" />
<path d="M 180.0005 164.99999997499998 A 5 5 0 0 0 180.001 165" stroke="black" />
<path d="M 180 165 A 5 5 0 0 0 180.0005 164.99999997499998" stroke="black" />
<path d="M 180.0005 155.00000002500002 A 5 5 0 0 0 180.00009999999997 155.000000001" stroke="black" />
<line x1="311" y1="170.66120941155953" x2="311" y2="201" stroke="black" />
<line x1="294.3960780543711" y1="165" x2="305.3387905884405" y2="165" stroke="black" />
<line x1="233.79795897113272" y1="165" x2="253.60392194562885" y2="165" stroke="black" />
<line x1="180.001" y1="165" x2="214.20204102886728" y2="165" stroke="black" />
<path d="M 214.20204102886728 165 A 11 11 0 0 0 233.79795897113272 165" stroke="black" />
<path d="M 253.60392194562885 165 A 21 21 0 0 0 294.3960780543711 165" stroke="black" />
<path d="M 305.3387905884405 165 A 8.535533905932738 8.535533905932738 0 0 0 311 170.66120941155953" stroke="black" />
<path d="M 311 201 A 5 5 0 0 0 303 205" stroke="black" />
<line x1="303" y1="205" x2="303" y2="206" stroke="black" />
<path d="M 303 206 A 5 5 0 0 0 295.5278640450004 207.7639320225002" stroke="black" />
<path d="M 275.5278640450004 247.7639320225002 A 5 5 0 0 0 281.9230769230769 254.6153846153846" stroke="black" />
<path d="M 281.9230769230769 305.38461538461536 A 5 5 0 0 0 280 305" stroke="black" />
<line x1="230" y1="270" x2="262" y2="270" stroke="black" />
<path d="M 180.00080000000003 150.00000000199998 A 15.000000002619373 15.000000002619373 0 1 0 180.00019999999998 150.00000000199998" stroke="black" />
<line x1="291.05572809000085" y1="205.52786404500043" x2="271.05572809000085" y2="245.52786404500043" stroke="black" />
<path d="M 283.84615384615387 300.7692307692308 A 22.5 22.5 0 1 0 283.84615384615387 259.2307692307692" stroke="black" />
<line x1="186.770329614269" y1="300" x2="280" y2="300" stroke="black" />
<line x1="186.770329614269" y1="300" x2="170.0626753787015" y2="258.23086441108114" stroke="black" />
<path d="M 220 260 A 25 25 0 0 0 170.0626753787015 258.23086441108114" stroke="black" />
<path d="M 220 260 A 10 10 0 0 0 230 270" stroke="black" />
<path d="M 262 270 A 10 10 0 0 0 272 260" stroke="black" />
<path d="M 180.00080000000003 150.00000000199998 A 10 10 0 0 0 180.0005 150.00000001249998" stroke="black" />
<path d="M 180.0005 169.99999998750002 A 10 10 0 0 0 180.001 170" stroke="black" />
<path d="M 180 170 A 10 10 0 0 0 180.0005 169.99999998750002" stroke="black" />
<path d="M 180.0005 150.00000001249998 A 10 10 0 0 0 180.00019999999998 150.00000000199998" stroke="black" />
<path d="M 299.32668344315846 200.0226935090535 A 10 10 0 0 0 291.05572809000085 205.52786404500043" stroke="black" />
<line x1="306" y1="173.76768290815176" x2="306" y2="195.20204102886728" stroke="black" />
<line x1="298" y1="170" x2="302.23231709184824" y2="170" stroke="black" />
<line x1="236.4899959967968" y1="170" x2="250" y2="170" stroke="black" />
<line x1="180.001" y1="170" x2="211.5100040032032" y2="170" stroke="black" />
<path d="M 211.5100040032032 170 A 16 16 0 0 0 236.4899959967968 170" stroke="black" />
<path d="M 250 170 A 26 26 0 0 0 298 170" stroke="black" />
<path d="M 302.23231709184824 170 A 13.535533905932738 13.535533905932738 0 0 0 306 173.76768290815176" stroke="black" />
<path d="M 306 195.20204102886728 A 10 10 0 0 0 299.32668344315846 200.0226935090535" stroke="black" />
<path d="M 271.05572809000085 245.52786404500043 A 10 10 0 0 0 270.7523168896061 246.1946935616517" stroke="black" />
<path d="M 271.88795614793656 255.8476272574609 A 10 10 0 0 0 283.84615384615387 259.2307692307692" stroke="black" />
<path d="M 272 260 A 76.99999999999999 76.99999999999999 0 0 0 271.88795614793656 255.8476272574609" stroke="black" />
<line x1="146.1689614663756" y1="170" x2="159.795848831296" y2="191.51885120348055" stroke="black" />
<line x1="146.1689614663756" y1="170" x2="180" y2="170" stroke="black" />
<path d="M 270.7523168896061 246.1946935616517 A 76.99999999999999 76.99999999999999 0 0 0 159.795848831296 191.51885120348055" stroke="black" />
<path d="M 283.84615384615387 300.7692307692308 A 10 10 0 0 0 280 300" stroke="black" />
<line x1="230" y1="275" x2="262" y2="275" stroke="black" />
<path d="M 180.00070000000002 145.00000000300003 A 10.000000002619373 10.000000002619373 0 1 0 180.00029999999995 145.00000000300003" stroke="black" />
<line x1="286.58359213500125" y1="203.29179606750063" x2="272.13778298465735" y2="232.18341436818844" stroke="black" />
<line x1="155.25344219956347" y1="175" x2="161.6436277693278" y2="185.0910390433238" stroke="black" />
<line x1="155.25344219956347" y1="175" x2="180" y2="175" stroke="black" />
<path d="M 272.13778298465735 232.18341436818844 A 81.99999999999999 81.99999999999999 0 0 0 161.6436277693278 185.0910390433238" stroke="black" />
<path d="M 285.7692307692308 296.1538461538462 A 17.5 17.5 0 1 0 285.7692307692308 263.8461538461538" stroke="black" />
<line x1="190.1554944214035" y1="295" x2="280" y2="295" stroke="black" />
<line x1="190.1554944214035" y1="295" x2="175.15653696920828" y2="257.5026063695119" stroke="black" />
<path d="M 215 260 A 20 20 0 0 0 175.15653696920828 257.5026063695119" stroke="black" />
<path d="M 215 260 A 15 15 0 0 0 230 275" stroke="black" />
<path d="M 180.00070000000002 145.00000000300003 A 15 15 0 0 0 180.0005 145.00000000833336" stroke="black" />
<path d="M 180.0005 174.99999999166664 A 15 15 0 0 0 180.001 175" stroke="black" />
<path d="M 180 175 A 15 15 0 0 0 180.0005 174.99999999166664" stroke="black" />
<path d="M 180.0005 145.00000000833336 A 15 15 0 0 0 180.00029999999995 145.00000000300003" stroke="black" />
<path d="M 296.4533287344014 195.42532597504228 A 15 15 0 0 0 286.58359213500125 203.29179606750063" stroke="black" />
<line x1="301" y1="176.18634418601192" x2="301" y2="191.73350083857838" stroke="black" />
<path d="M 300.64155984080503 175.85015107968388 A 18.535533905932738 18.535533905932738 0 0 0 301 176.18634418601192" stroke="black" />
<line x1="238.69693845669906" y1="175" x2="246.87068006749894" y2="175" stroke="black" />
<line x1="180.001" y1="175" x2="209.30306154330094" y2="175" stroke="black" />
<path d="M 209.30306154330094 175 A 21 21 0 0 0 238.69693845669906 175" stroke="black" />
<path d="M 246.87068006749894 175 A 31 31 0 0 0 300.64155984080503 175.85015107968388" stroke="black" />
<path d="M 301 191.73350083857838 A 15 15 0 0 0 296.4533287344014 195.42532597504228" stroke="black" />
<path d="M 276.2977389267355 264.535930068124 A 15 15 0 0 0 285.7692307692308 263.8461538461538" stroke="black" />
<path d="M 262 275 A 15 15 0 0 0 276.2977389267355 264.535930068124" stroke="black" />
<path d="M 285.7692307692308 296.1538461538462 A 15 15 0 0 0 280 295" stroke="black" />
<line x1="230" y1="280" x2="262" y2="280" stroke="black" />
<path d="M 180.00060000000002 140.00000000400001 A 5.000000002619373 5.000000002619373 0 1 0 180.00039999999996 140.00000000400001" stroke="black" />
<path d="M 287.6923076923077 291.53846153846155 A 12.5 12.5 0 1 0 287.6923076923077 268.46153846153845" stroke="black" />
<line x1="193.540659228538" y1="290" x2="280" y2="290" stroke="black" />
<line x1="193.540659228538" y1="290" x2="180.3158555174779" y2="256.93799072234975" stroke="black" />
<path d="M 210 260 A 15 15 0 0 0 180.3158555174779 256.93799072234975" stroke="black" />
<path d="M 210 260 A 20 20 0 0 0 230 280" stroke="black" />
<path d="M 293.6990509873217 191.01848157971472 A 20 20 0 0 0 282.1114561800017 201.05572809000085" stroke="black" />
<line x1="296" y1="188.49561369755003" x2="296" y2="189" stroke="black" />
<line x1="240.61324772583615" y1="180" x2="244.06674090580847" y2="180" stroke="black" />
<path d="M 180.0005 140.00000000625 A 20 20 0 0 0 180.00039999999996 140.00000000400001" stroke="black" />
<path d="M 180.00060000000002 140.00000000400001 A 20 20 0 0 0 180.0005 140.00000000625" stroke="black" />
<line x1="282.1114561800017" y1="201.05572809000085" x2="272.45205927311315" y2="220.374521903778" stroke="black" />
<path d="M 272.45205927311315 220.374521903778 A 86.99999999999999 86.99999999999999 0 0 0 235.80760635043342 183.1642058416257" stroke="black" />
<path d="M 235.80760635043342 183.1642058416257 A 26 26 0 0 0 240.61324772583615 180" stroke="black" />
<path d="M 244.06674090580847 180 A 36 36 0 0 0 296 188.49561369755003" stroke="black" />
<path d="M 296 189 A 20 20 0 0 0 293.6990509873217 191.01848157971472" stroke="black" />
<path d="M 279.32704165004054 269.9886749700729 A 20 20 0 0 0 287.6923076923077 268.46153846153845" stroke="black" />
<path d="M 262 280 A 20 20 0 0 0 279.32704165004054 269.9886749700729" stroke="black" />
<path d="M 287.6923076923077 291.53846153846155 A 20 20 0 0 0 280 290" stroke="black" />
<line x1="230" y1="285" x2="262" y2="285" stroke="black" />
<path d="M 289.61538461538464 286.9230769230769 A 7.5 7.5 0 1 0 289.61538461538464 273.0769230769231" stroke="black" />
<line x1="276.59009729736437" y1="200.91810596777648" x2="272.12652570528655" y2="209.84524915193208" stroke="black" />
<path d="M 272.12652570528655 209.84524915193208 A 91.99999999999999 91.99999999999999 0 0 0 264.6790167300301 199.92642321672386" stroke="black" />
<path d="M 264.6790167300301 199.92642321672386 A 41 41 0 0 0 276.59009729736437 200.91810596777648" stroke="black" />
<path d="M 282.0637091600131 274.91467648802364 A 25 25 0 0 0 289.61538461538464 273.0769230769231" stroke="black" />
<line x1="280" y1="285" x2="262" y2="285" stroke="black" />
<line x1="262" y1="285" x2="230" y2="285" stroke="black" />
<line x1="196.92582403567252" y1="285" x2="230" y2="285" stroke="black" />
<line x1="196.92582403567252" y1="285" x2="185.58158941272671" y2="256.63941344263554" stroke="black" />
<path d="M 205 260 A 10 10 0 0 0 185.58158941272671 256.63941344263554" stroke="black" />
<path d="M 205 260 A 25 25 0 0 0 230 285" stroke="black" />
<path d="M 262 285 A 25 25 0 0 0 282.0637091600131 274.91467648802364" stroke="black" />
<path d="M 289.61538461538464 286.9230769230769 A 25 25 0 0 0 280 285" stroke="black" />
<line x1="180.00059999999993" y1="130.000000006" x2="180.00040000000004" y2="130.000000006" stroke="black" />
<path d="M 291.53846153846155 282.3076923076923 A 2.5 2.5 0 1 0 291.53846153846155 277.6923076923077" stroke="black" />
<line x1="200.310988842807" y1="280" x2="207.6393202250021" y2="280" stroke="black" />
<line x1="200.310988842807" y1="280" x2="191.07300777336098" y2="256.905047326385" stroke="black" />
<path d="M 200 260 A 5 5 0 0 0 191.07300777336098 256.905047326385" stroke="black" />
<path d="M 200 260 A 30 30 0 0 0 207.6393202250021 280" stroke="black" />
<path d="M 284.68444923785376 279.63200862813676 A 30 30 0 0 0 291.53846153846155 277.6923076923077" stroke="black" />
<path d="M 284.1050451976225 280.2821837288559 A 30 30 0 0 0 284.68444923785376 279.63200862813676" stroke="black" />
<path d="M 291.53846153846155 282.3076923076923 A 30 30 0 0 0 284.1050451976225 280.2821837288559" stroke="black" />
<line x1="180.0006999999999" y1="125.00000000699998" x2="180.00030000000007" y2="125.00000000699998" stroke="black" />
<line x1="180.00079999999988" y1="120.00000000800003" x2="180.00020000000006" y2="120.00000000800003" stroke="black" />
<line x1="180.0008999999999" y1="115.00000000900002" x2="180.00010000000006" y2="115.00000000900002" stroke="black" />
</svg>
